<svg id="visual" viewBox="0 0 1000 500" width="1000" height="500" xmlns="http://www.w3.org/2000/svg" xmlns:xlink="http://www.w3.org/1999/xlink" version="1.1"><rect x="0" y="0" width="1000" height="500" fill="#002233"></rect><path d="M0 234L41.7 239.2C83.3 244.3 166.7 254.7 250 257C333.3 259.3 416.7 253.7 500 250.2C583.3 246.7 666.7 245.3 750 248.8C833.3 252.3 916.7 260.7 958.3 264.8L1000 269L1000 501L958.3 501C916.7 501 833.3 501 750 501C666.7 501 583.3 501 500 501C416.7 501 333.3 501 250 501C166.7 501 83.3 501 41.7 501L0 501Z" fill="#0066FF" stroke-linecap="round" stroke-linejoin="miter"></path></svg>